<svg xmlns="http://www.w3.org/2000/svg" viewBox="0 0 101 101"><path d="M50.5 16.4c-15 0-27.2 12.2-27.2 27.2 0 1.8.2 3.6.5 5.4 0 .1 0 .3.1.4 3 13.4 24.1 33.6 25 34.5.5.4 1.1.7 1.7.7.6 0 1.2-.2 1.7-.7.9-.9 21.8-21 24.8-34.2 0-.1 0-.2.1-.4.4-1.9.6-3.8.6-5.8-.1-14.9-12.3-27.1-27.3-27.1zm21.9 32.1v.2c-2.2 9.8-16.8 25.1-21.8 30.1-5-5-19.6-20.3-21.9-30.3v-.3c-.3-1.5-.5-3-.5-4.6 0-12.3 10-22.4 22.4-22.4C63 21.2 73 31.2 73 43.6c-.1 1.7-.3 3.3-.6 4.9z"/><path d="M50.5 31.7c-5 0-9.1 4.1-9.1 9.1s4.1 9.1 9.1 9.1 9.1-4.1 9.1-9.1-4.1-9.1-9.1-9.1zm0 13.4c-2.4 0-4.3-1.9-4.3-4.3s1.9-4.3 4.3-4.3 4.3 1.9 4.3 4.3-1.9 4.3-4.3 4.3z"/></svg>